PathFileType	4	(x/y/z)	S05_M20_T08
DataRate	CameraRate	NumFrames	NumMarkers	Units	OrigDataRate	OrigDataStartFrame	OrigNumFrames
240	240	9	50	mm	240	389	518
Frame#	Time	Sternum			R.Acromium			L.Acromium			Top.Head			R.ASIS			L.ASIS			R.PSIS			L.PSIS			R.Great.Tro			L.Great.Tro			R.Iliac.Crest			L.Iliac.Crest			V.Sacral			R.Thigh.Upper.Post			R.Thigh.Lower.Ant			R.Thigh.Lower.Post			R.Thigh.Upper.Ant			R.Knee.Lat			R.Knee.Med			R.Shank.Upper.Post			R.Shank.Lower.Ant			R.Shank.Lower.Post			R.Shank.Upper.Ant			R.Ankle.Lat			R.Ankle.Med			R.Heel.Upper			R.Heel.Med			R.Heel.Lat			R.Toe.Lat			R.Toe.Med			R.Toe.Tip			L.Thigh.Upper.Post			L.Thigh.Lower.Ant			L.Thigh.Lower.Post			L.Thigh.Upper.Ant			L.Knee.Lat			L.Shank.Upper.Post			L.Shank.Lower.Ant			L.Shank.Lower.Post			L.Shank.Upper.Ant			L.Ankle.Lat			L.Ankle.Med			L.Heel.Upper			L.Heel.Med			L.Heel.Lat			L.Toe.Lat			L.Toe.Med			L.Toe.Tip			Cervical.Spine			Back			
		X1	Y1	Z1	X2	Y2	Z2	X3	Y3	Z3	X4	Y4	Z4	X5	Y5	Z5	X6	Y6	Z6	X7	Y7	Z7	X8	Y8	Z8	X9	Y9	Z9	X10	Y10	Z10	X11	Y11	Z11	X12	Y12	Z12	X13	Y13	Z13	X14	Y14	Z14	X15	Y15	Z15	X16	Y16	Z16	X17	Y17	Z17	X18	Y18	Z18	X19	Y19	Z19	X20	Y20	Z20	X21	Y21	Z21	X22	Y22	Z22	X23	Y23	Z23	X24	Y24	Z24	X25	Y25	Z25	X26	Y26	Z26	X27	Y27	Z27	X28	Y28	Z28	X29	Y29	Z29	X30	Y30	Z30	X31	Y31	Z31	X32	Y32	Z32	X33	Y33	Z33	X34	Y34	Z34	X35	Y35	Z35	X36	Y36	Z36	X37	Y37	Z37	X38	Y38	Z38	X39	Y39	Z39	X40	Y40	Z40	X41	Y41	Z41	X42	Y42	Z42	X43	Y43	Z43	X44	Y44	Z44	X45	Y45	Z45	X46	Y46	Z46	X47	Y47	Z47	X48	Y48	Z48	X49	Y49	Z49	X50	Y50	Z50	

389	1.6167	1288	1248.7	307.8	1182.2	1519.4	434.27	1196.5	1512.1	103.72	1169.1	1804	226.5	1201.3	988.79	443.43	1252.3	1003	199.55	1022	1008.3	318.44	1041.2	1014.1	227.98	1107.1	903.91	487.31	1195.8	926.92	103.22	1108.6	1072.4	463.87	1170.6	1074.3	131.59	1016.2	976.09	281.19	1189.7	680.56	508.31	1257.6	612.59	472.84	1190.1	591.11	492.28	1252.5	701.39	487.24	1181.4	502.19	481.16	1212.5	479.42	352.33	964.12	420.61	434.52	943	332.51	430.49	903.38	379.9	408.9	1004.2	373.78	455.97	843.39	300.87	402.49	892.3	287.78	322.37	793.09	330.13	326.89	772.68	308.28	294.19	762.34	313.93	358.76	796.5	158.48	425.69	840.24	123.8	318.81	870.66	74.593	372.83	1251.7	690.46	121.04	1340.2	637.74	162.06	1279.7	601.54	142.95	1319.8	724	141.22	1313	520.85	154.16	1262.4	316.15	149.45	1330.1	262.08	160.78	1261.7	244.44	166.8	1326	331.93	148.49	1294.7	115.13	176.02	1322.3	129.11	264.28	1235.6	66.91	227.38	1246.2	42.863	259.85	1238.7	39.68	198.79	1420.9	40.869	148.74	1442.4	51.674	267.54	1506.1	65.818	215.15	1132.7	1550.4	270.1	1022.7	1271.9	276.32
390	1.6208	1293.1	1249.8	307.61	1187.4	1520.4	434.26	1201.8	1513.3	103.7	1174.6	1805.2	226.89	1206.6	990.18	443.09	1257.2	1004.1	199.17	1027.1	1009.3	318.47	1046.2	1015	228	1113.1	904.99	487.35	1200.5	927.74	103.07	1113.7	1073.6	463.63	1175.4	1075.3	131.33	1021.3	977.03	281.23	1198.8	682.51	508.12	1267.5	615.5	472.27	1200.5	593.07	492.08	1261.2	704.23	486.69	1193	504.09	480.91	1223.8	481.87	351.96	976.08	421.57	434.77	955.47	333.36	430.37	915.46	380.63	409.23	1016.5	374.86	455.79	856.02	301.32	402.57	904.63	289.19	322.11	804.36	330.28	327.36	784.15	308.18	294.69	774.1	313.43	359.33	811.37	158.45	425.46	855.05	124.92	318.18	886.62	76.158	371.85	1255.2	690.93	121	1343.4	637.71	162.04	1282.7	601.84	142.93	1323.5	724.08	141.18	1315.3	520.87	154.14	1263.6	316.36	149.46	1331.3	261.92	160.98	1262.7	244.67	166.79	1327.3	331.83	148.54	1295	115.26	176.13	1322.5	129.15	264.44	1235.6	66.993	227.44	1246.3	42.893	259.88	1238.8	39.779	198.83	1420.9	40.868	148.75	1442.5	51.488	267.58	1506.2	65.561	215.18	1138	1551.5	270.07	1027.9	1273	276.03
391	1.625	1298.1	1250.8	307.43	1192.5	1521.5	434.26	1207.1	1514.5	103.69	1180.1	1806.4	227.33	1211.9	991.58	442.75	1262.1	1005.2	198.78	1032.1	1010.2	318.52	1051.2	1016	228.05	1119	906.12	487.42	1205.1	928.54	102.93	1118.8	1074.9	463.41	1180.2	1076.3	131.07	1026.3	977.98	281.3	1207.9	684.54	507.92	1277.3	618.49	471.68	1210.7	595.13	491.87	1270	707.13	486.11	1204.5	506.08	480.63	1235.1	484.41	351.58	988	422.44	435.01	967.99	334.1	430.22	927.54	381.22	409.54	1028.8	375.89	455.59	868.72	301.6	402.63	917.03	290.44	321.83	815.69	330.18	327.8	795.7	307.82	295.15	785.93	312.69	359.86	826.42	158.26	425.23	870.05	125.89	317.54	902.79	77.618	370.87	1258.6	691.39	120.94	1346.5	637.65	161.98	1285.5	602.14	142.89	1327.1	724.14	141.1	1317.7	520.88	154.11	1264.9	316.56	149.4	1332.5	261.76	161.15	1263.6	244.89	166.73	1328.7	331.73	148.56	1295.3	115.37	176.22	1322.7	129.2	264.58	1235.6	67.082	227.5	1246.3	42.931	259.92	1238.8	39.879	198.86	1420.9	40.857	148.75	1442.6	51.306	267.62	1506.3	65.302	215.19	1143.3	1552.7	270.05	1033.1	1274.2	275.77
392	1.6292	1303.2	1251.9	307.24	1197.5	1522.5	434.26	1212.4	1515.7	103.7	1185.5	1807.6	227.8	1217.1	992.99	442.39	1266.9	1006.2	198.38	1037.1	1011.2	318.6	1056.1	1016.9	228.13	1124.9	907.27	487.5	1209.7	929.33	102.79	1124	1076.2	463.2	1185	1077.3	130.83	1031.3	978.94	281.42	1216.9	686.65	507.72	1287.1	621.55	471.07	1221	597.28	491.67	1278.6	710.09	485.51	1215.9	508.14	480.34	1246.2	487.01	351.18	999.88	423.22	435.22	980.53	334.75	430.05	939.62	381.67	409.81	1041.2	376.86	455.37	881.48	301.71	402.66	929.5	291.53	321.55	827.08	329.83	328.2	807.33	307.19	295.59	797.84	311.69	360.36	841.61	157.9	425	885.22	126.69	316.91	919.16	78.978	369.91	1261.9	691.84	120.88	1349.5	637.56	161.88	1288.3	602.42	142.83	1330.6	724.18	140.98	1319.9	520.89	154.06	1266.2	316.75	149.28	1333.6	261.61	161.3	1264.5	245.1	166.62	1330	331.63	148.57	1295.5	115.48	176.3	1322.9	129.25	264.7	1235.7	67.178	227.54	1246.3	42.976	259.95	1238.8	39.982	198.88	1421	40.836	148.75	1442.7	51.126	267.65	1506.4	65.04	215.2	1148.6	1553.8	270.04	1038.2	1275.4	275.54
393	1.6333	1308.2	1253	307.06	1202.6	1523.6	434.28	1217.6	1516.9	103.72	1191	1808.8	228.32	1222.4	994.41	442.04	1271.8	1007.3	197.97	1042.1	1012.2	318.71	1061	1017.9	228.23	1130.8	908.46	487.61	1214.2	930.09	102.65	1129.1	1077.5	462.99	1189.7	1078.3	130.6	1036.3	979.88	281.56	1225.9	688.83	507.52	1296.8	624.68	470.45	1231.1	599.51	491.48	1287.2	713.11	484.89	1227.2	510.27	480.04	1257.2	489.67	350.77	1011.7	423.91	435.4	993.09	335.29	429.86	951.69	381.99	410.04	1053.5	377.79	455.12	894.28	301.65	402.65	942.04	292.46	321.25	838.53	329.24	328.56	819.06	306.29	295.98	809.84	310.45	360.81	856.96	157.41	424.77	900.55	127.35	316.3	935.7	80.239	368.98	1265.1	692.28	120.8	1352.4	637.45	161.73	1290.9	602.69	142.75	1334.1	724.21	140.82	1322.1	520.89	153.99	1267.5	316.93	149.1	1334.8	261.46	161.42	1265.4	245.3	166.47	1331.4	331.53	148.56	1295.8	115.59	176.37	1323.1	129.31	264.81	1235.7	67.281	227.58	1246.4	43.029	259.99	1238.8	40.089	198.9	1421	40.804	148.74	1442.8	50.949	267.67	1506.6	64.772	215.2	1153.8	1554.9	270.04	1043.3	1276.6	275.33
394	1.6375	1313.2	1254.1	306.88	1207.6	1524.7	434.31	1222.9	1518.1	103.76	1196.4	1810	228.87	1227.7	995.83	441.67	1276.6	1008.3	197.54	1047.1	1013.1	318.84	1065.9	1018.8	228.35	1136.7	909.68	487.74	1218.7	930.83	102.51	1134.3	1078.8	462.8	1194.4	1079.3	130.38	1041.2	980.83	281.73	1234.9	691.08	507.32	1306.3	627.87	469.8	1241.3	601.82	491.29	1295.7	716.18	484.25	1238.4	512.46	479.73	1268.1	492.39	350.34	1023.5	424.51	435.55	1005.7	335.73	429.64	963.75	382.16	410.23	1065.7	378.66	454.85	907.14	301.42	402.6	954.65	293.22	320.93	850.05	328.39	328.87	830.88	305.12	296.33	821.91	308.96	361.21	872.45	156.77	424.55	916.04	127.85	315.72	952.42	81.407	368.1	1268.2	692.71	120.71	1355.3	637.32	161.54	1293.5	602.95	142.66	1337.5	724.22	140.62	1324.2	520.89	153.89	1268.7	317.09	148.87	1335.9	261.33	161.52	1266.3	245.48	166.29	1332.7	331.42	148.53	1296.1	115.69	176.43	1323.3	129.38	264.9	1235.8	67.389	227.61	1246.4	43.088	260.02	1238.8	40.2	198.92	1421	40.764	148.74	1442.8	50.771	267.69	1506.7	64.497	215.2	1159	1556	270.05	1048.4	1277.7	275.14
395	1.6417	1318.1	1255.2	306.7	1212.6	1525.7	434.35	1228.1	1519.3	103.81	1201.7	1811.2	229.45	1232.9	997.24	441.31	1281.4	1009.3	197.1	1052	1014.1	318.99	1070.8	1019.7	228.49	1142.6	910.92	487.89	1223.1	931.55	102.37	1139.5	1080.1	462.62	1199.1	1080.3	130.18	1046.2	981.76	281.93	1243.8	693.4	507.13	1315.8	631.12	469.14	1251.3	604.21	491.11	1304.2	719.29	483.6	1249.6	514.72	479.41	1278.9	495.15	349.91	1035.2	425.02	435.66	1018.3	336.08	429.4	975.81	382.21	410.38	1078	379.48	454.55	920.05	301.03	402.51	967.32	293.82	320.6	861.65	327.3	329.12	842.79	303.69	296.62	834.07	307.24	361.55	888.06	156.02	424.35	931.68	128.2	315.18	969.29	82.484	367.29	1271.3	693.13	120.61	1358.1	637.18	161.3	1296	603.21	142.54	1340.8	724.21	140.38	1326.2	520.89	153.78	1269.9	317.25	148.61	1336.9	261.2	161.59	1267.2	245.66	166.1	1334	331.31	148.48	1296.4	115.79	176.47	1323.5	129.44	264.99	1235.8	67.504	227.64	1246.4	43.154	260.05	1238.8	40.315	198.93	1421.1	40.714	148.72	1442.9	50.595	267.71	1506.8	64.216	215.19	1164.2	1557	270.08	1053.5	1278.9	274.98
396	1.6458	1323.1	1256.3	306.53	1217.6	1526.8	434.4	1233.3	1520.5	103.87	1207.1	1812.3	230.06	1238.2	998.63	440.94	1286.2	1010.3	196.65	1057	1015.1	319.17	1075.6	1020.6	228.65	1148.5	912.18	488.05	1227.4	932.25	102.23	1144.6	1081.4	462.45	1203.7	1081.3	129.98	1051.2	982.68	282.15	1252.7	695.77	506.94	1325.2	634.41	468.47	1261.3	606.66	490.94	1312.5	722.44	482.93	1260.7	517.03	479.08	1289.5	497.96	349.46	1046.9	425.44	435.72	1030.9	336.34	429.14	987.86	382.11	410.49	1090.3	380.26	454.24	933	300.48	402.38	980.06	294.25	320.26	873.32	325.95	329.31	854.82	301.98	296.86	846.32	305.27	361.83	903.8	155.15	424.18	947.47	128.4	314.69	986.3	83.475	366.56	1274.3	693.54	120.5	1360.8	637.01	161.01	1298.5	603.45	142.4	1344.1	724.17	140.1	1328.2	520.88	153.65	1271.1	317.4	148.33	1338	261.08	161.63	1268.1	245.83	165.89	1335.2	331.2	148.42	1296.6	115.89	176.52	1323.7	129.51	265.06	1235.8	67.624	227.66	1246.5	43.224	260.07	1238.8	40.436	198.94	1421.1	40.658	148.71	1443	50.419	267.72	1507	63.928	215.18	1169.4	1558.1	270.11	1058.6	1280	274.83
397	1.65	1328.1	1257.4	306.37	1222.6	1527.8	434.45	1238.4	1521.7	103.95	1212.5	1813.5	230.7	1243.4	1000	440.56	1290.9	1011.3	196.19	1062	1016	319.36	1080.5	1021.5	228.83	1154.4	913.45	488.23	1231.7	932.93	102.09	1149.8	1082.7	462.29	1208.3	1082.2	129.79	1056.1	983.58	282.4	1261.5	698.19	506.76	1334.6	637.74	467.79	1271.2	609.17	490.78	1320.8	725.62	482.25	1271.6	519.39	478.75	1300	500.79	349	1058.5	425.77	435.75	1043.5	336.51	428.87	999.91	381.89	410.55	1102.5	381	453.91	945.99	299.77	402.21	992.86	294.5	319.91	885.07	324.36	329.43	866.97	300.01	297.04	858.67	303.08	362.04	919.64	154.17	424.03	963.4	128.46	314.26	1003.4	84.384	365.92	1277.2	693.94	120.37	1363.4	636.83	160.68	1300.8	603.69	142.24	1347.3	724.13	139.78	1330.1	520.87	153.5	1272.2	317.54	148.03	1339	260.97	161.65	1268.9	246	165.67	1336.5	331.1	148.34	1296.9	115.98	176.55	1323.9	129.58	265.12	1235.9	67.748	227.68	1246.5	43.299	260.1	1238.8	40.563	198.95	1421.1	40.595	148.69	1443.1	50.243	267.73	1507.1	63.635	215.17	1174.5	1559.2	270.17	1063.7	1281.2	274.69
